# File created by Blade
# Date/Time:  Thu Sep 25 14:26:36 2014
# Frame Rate: 120.000 fps
#------------------------------------------------------
:FULLY-SPECIFIED
:DEGREES
578
root 13.796796 32.222791 -0.558154 12.544027 88.058154 14.263328
Spine -12.172415 9.021471 -1.910176
Head 5.421586 -9.980995 9.044481
LeftShoulder -9.865060 16.677423 18.314733
LeftArm 31.718314 -3.651648 -45.378063
LeftForeArm -2.778229 -0.000000 22.717837
LeftHand -23.919597 0.000000 3.140311
LeftHandThumb1 -26.253704 0.000000 33.147579
RightShoulder -17.693882 17.092509 -27.419146
RightArm 6.056472 -10.185305 57.882985
RightForeArm -21.039649 -0.000000 27.209047
RightHand -6.489912 -0.000000 -5.477477
RightHandThumb1 -24.326973 -0.000000 -32.862282
LeftUpLeg 0.415366 4.892148 10.749134
LeftLeg 9.277682 -0.000000 -0.000000
LeftFoot -20.696259 13.157330 -21.544358
LeftToeBase 10.230551 -0.000000 -0.000000
RightUpLeg -3.065505 -13.132765 -8.986617
RightLeg 18.595142 -0.000000 -0.000000
RightFoot -16.522443 -7.298842 -2.038491
RightToeBase 0.945323 -0.000000 -0.000000
579
root 13.818810 32.226303 -0.498733 5.314737 88.162943 7.031014
Spine -12.411679 8.999264 -1.572760
Head 5.679566 -9.987615 8.654067
LeftShoulder -9.933930 16.702747 18.193610
LeftArm 32.010113 -3.935173 -45.255301
LeftForeArm -2.882124 -0.000000 22.906372
LeftHand -23.985347 -0.000000 3.632504
LeftHandThumb1 -26.253704 0.000000 33.147579
RightShoulder -17.647511 16.968342 -27.517485
RightArm 6.225106 -10.306954 57.674610
RightForeArm -21.042296 -0.000000 27.137380
RightHand -6.699341 -0.000000 -5.442646
RightHandThumb1 -24.326973 -0.000000 -32.862282
LeftUpLeg 0.370785 5.428704 11.152433
LeftLeg 9.445549 -0.000000 -0.000000
LeftFoot -20.840910 13.189695 -21.362082
LeftToeBase 9.536116 -0.000000 -0.000000
RightUpLeg -2.867399 -12.806253 -8.685658
RightLeg 18.230527 -0.000000 -0.000000
RightFoot -16.343631 -7.269008 -1.020464
RightToeBase 0.085170 -0.000000 -0.000000
580
root 13.847903 32.232948 -0.438516 -5.066082 88.201739 -3.323666
Spine -12.646789 9.036975 -1.103726
Head 5.987113 -9.956117 8.209739
LeftShoulder -10.017216 16.749331 18.045078
LeftArm 32.314835 -4.303097 -45.275173
LeftForeArm -2.519346 -0.000000 23.165472
LeftHand -24.127631 -0.000000 3.337640
LeftHandThumb1 -26.253704 0.000000 33.147579
RightShoulder -17.601004 16.949274 -27.714741
RightArm 6.178949 -10.349279 57.518458
RightForeArm -21.007039 0.000000 27.167671
RightHand -6.610373 -0.000000 -5.177883
RightHandThumb1 -24.326973 -0.000000 -32.862282
LeftUpLeg 0.376987 6.078190 11.634317
LeftLeg 9.595038 -0.000000 -0.000000
LeftFoot -20.812781 12.912342 -21.055695
LeftToeBase 9.034916 -0.000000 -0.000000
RightUpLeg -2.588774 -12.373876 -8.335146
RightLeg 17.825323 -0.000000 -0.000000
RightFoot -16.126974 -7.153512 0.424408
RightToeBase -0.605582 -0.000000 0.000000
581
root 13.887576 32.240509 -0.377652 -16.817307 88.187913 -14.956431
Spine -12.787744 9.007404 -0.585929
Head 6.244079 -9.907069 7.836749
LeftShoulder -10.092625 16.764898 17.967777
LeftArm 32.513593 -4.502114 -45.255627
LeftForeArm -2.419852 0.000000 23.448088
LeftHand -24.246173 -0.000000 3.485594
LeftHandThumb1 -26.253704 0.000000 33.147579
RightShoulder -17.556376 16.901886 -27.891305
RightArm 6.346871 -10.591941 57.302957
RightForeArm -20.790025 -0.000000 26.939869
RightHand -6.880836 0.000000 -5.131380
RightHandThumb1 -24.326973 -0.000000 -32.862282
LeftUpLeg 0.499011 6.771389 12.167237
LeftLeg 9.701791 -0.000000 -0.000000
LeftFoot -20.605521 12.378560 -20.673387
LeftToeBase 8.544457 -0.000000 -0.000000
RightUpLeg -2.203541 -11.947091 -7.969398
RightLeg 17.473815 -0.000000 -0.000000
RightFoot -15.911004 -6.882516 1.512368
RightToeBase -0.178582 -0.000000 0.000000
